#!OML:ASF F:\VICON\USERDATA\INSTALL\rory3\rory3.ASF
:FULLY-SPECIFIED
:DEGREES
997
root 3.37996 26.4304 -0.243422 -166.894 -19.4902 -182.067
lowerback 12.6288 -3.66033 -3.34296
upperback 3.42918 -5.51856 2.36561
thorax -2.90024 -2.8825 5.16331
lowerneck -10.6164 5.20991 -8.95297
upperneck 39.8371 4.72069 1.11188
head 15.5356 -0.720563 2.37181
rclavicle -6.02318e-014 8.24956e-015
rhumerus 21.8621 10.203 -76.8232
rradius 94.9147
rwrist 4.51353
rhand -26.565 -19.0937
rfingers 7.12502
rthumb 9.06513e-005 -49.0734
lclavicle -6.02318e-014 8.24956e-015
lhumerus 3.11039 -0.939712 80.8095
lradius 59.8313
lwrist 16.1331
lhand -13.6518 17.3409
lfingers 7.12502
lthumb 12.4648 46.9492
rfemur -51.4712 1.23523 20.2393
rtibia 66.5394
rfoot -20.4893 6.70813
rtoes 9.57058
lfemur -28.6423 -1.95575 -18.7633
ltibia 24.7935
lfoot 14.9752 -6.41631
ltoes -18.0651
998
root 3.37079 26.33 -0.209692 -166.94 -19.1817 -181.717
lowerback 12.7394 -3.68374 -3.12849
upperback 3.30774 -5.51496 2.44992
thorax -3.09987 -2.87036 5.14877
lowerneck -10.1065 5.31871 -9.00878
upperneck 39.6901 4.72227 1.25938
head 15.3266 -0.709245 2.42682
rclavicle 3.08613e-014 1.51076e-014
rhumerus 22.5398 10.3837 -76.6454
rradius 94.6844
rwrist 4.33518
rhand -26.4659 -19.4933
rfingers 7.12502
rthumb 0.0957483 -49.4731
lclavicle 3.08613e-014 1.51076e-014
lhumerus 2.97217 -0.485585 80.8055
lradius 60.3251
lwrist 15.629
lhand -13.8136 17.5266
lfingers 7.12502
lthumb 12.3089 47.1443
rfemur -52.2873 1.51666 20.5236
rtibia 67.5904
rfoot -20.9185 6.75879
rtoes 10.0745
lfemur -28.5971 -1.96412 -18.5996
ltibia 23.7568
lfoot 15.1174 -6.15779
ltoes -20.2472
999
root 3.36086 26.2407 -0.177484 -166.929 -18.708 -181.4
lowerback 12.7671 -3.65468 -3.01175
upperback 3.17243 -5.44927 2.52883
thorax -3.26686 -2.82703 5.16805
lowerneck -9.62373 5.4437 -9.04335
upperneck 39.5897 4.76913 1.31244
head 15.1524 -0.695798 2.44391
rclavicle 1.05356e-014 0
rhumerus 23.2564 10.5702 -76.5226
rradius 94.3565
rwrist 4.11286
rhand -26.4904 -19.7495
rfingers 7.12502
rthumb 0.0721029 -49.7292
lclavicle 1.05356e-014 0
lhumerus 2.8933 -0.0911173 80.7982
lradius 60.791
lwrist 15.1803
lhand -14.1099 17.7158
lfingers 7.12502
lthumb 12.0231 47.3505
rfemur -53.1197 1.96535 20.7124
rtibia 68.558
rfoot -21.2266 6.91001
rtoes 10.8093
lfemur -28.5526 -2.23587 -18.3651
ltibia 22.8138
lfoot 15.1323 -5.40829
ltoes -21.1636
1000
root 3.34729 26.1563 -0.140364 -166.877 -18.1205 -181.198
lowerback 12.8259 -3.59771 -2.95964
upperback 3.05461 -5.35843 2.53495
thorax -3.43647 -2.77118 5.14513
lowerneck -9.30427 5.53884 -8.9616
upperneck 39.5488 4.826 1.20687
head 15.06 -0.686516 2.37994
rclavicle -2.51463e-014 8.34896e-015
rhumerus 23.9797 10.7283 -76.4275
rradius 94.0684
rwrist 3.82723
rhand -26.3323 -19.8224
rfingers 7.12502
rthumb 0.224755 -49.8021
lclavicle -2.51463e-014 8.34896e-015
lhumerus 2.80025 0.181837 80.6554
lradius 61.369
lwrist 14.9792
lhand -14.5421 18.1455
lfingers 7.12502
lthumb 11.6064 47.8041
rfemur -53.9545 2.53975 20.7103
rtibia 69.4597
rfoot -21.5344 7.03836
rtoes 10.63
lfemur -28.4528 -2.58493 -18.2239
ltibia 21.8534
lfoot 15.1465 -4.4246
ltoes -21.5183
1001
root 3.33488 26.0759 -0.101265 -166.847 -17.5362 -180.956
lowerback 12.9044 -3.53879 -2.8733
upperback 2.96422 -5.26405 2.54193
thorax -3.59137 -2.71621 5.10327
lowerneck -8.99932 5.61476 -8.9844
upperneck 39.4718 4.82058 1.3109
head 14.9424 -0.683587 2.41521
rclavicle 2.06736e-014 -1.91827e-014
rhumerus 24.6766 10.8386 -76.2404
rradius 93.8701
rwrist 3.49785
rhand -25.9649 -20.0075
rfingers 7.12502
rthumb 0.579654 -49.9864
lclavicle 2.06736e-014 -1.91827e-014
lhumerus 2.69229 0.345361 80.4279
lradius 62.0144
lwrist 14.8767
lhand -15.1414 18.1858
lfingers 7.12502
lthumb 11.0284 47.876
rfemur -54.7624 3.13537 20.7568
rtibia 70.3034
rfoot -21.7536 7.05709
rtoes 10.2883
lfemur -28.3819 -2.78371 -18.074
ltibia 20.9618
lfoot 15.237 -3.76826
ltoes -22.346
1002
root 3.32469 25.9897 -0.0633736 -166.845 -16.9408 -180.731
lowerback 12.9893 -3.46731 -2.82162
upperback 2.90124 -5.16059 2.52798
thorax -3.72064 -2.65875 5.05613
lowerneck -8.74569 5.70279 -9.11313
upperneck 39.4843 4.78337 1.59714
head 14.8698 -0.694519 2.54243
rclavicle 1.66482e-014 1.35671e-014
rhumerus 25.4133 10.9068 -75.9939
rradius 93.6733
rwrist 3.05314
rhand -25.3692 -20.3161
rfingers 7.12502
rthumb 1.155 -50.2927
lclavicle 1.66482e-014 1.35671e-014
lhumerus 2.69169 0.467875 80.2075
lradius 62.6763
lwrist 14.8709
lhand -15.5487 18.2017
lfingers 7.12502
lthumb 10.6355 47.9126
rfemur -55.5478 3.7563 20.7813
rtibia 71.147
rfoot -21.9513 7.12007
rtoes 10.1549
lfemur -28.2943 -3.06864 -17.8761
ltibia 20.1808
lfoot 15.4165 -2.92885
ltoes -21.6278
1003
root 3.3154 25.9025 -0.0247758 -166.906 -16.3613 -180.404
lowerback 13.1843 -3.4122 -2.683
upperback 2.811 -5.06806 2.52741
thorax -3.94364 -2.6043 4.98658
lowerneck -8.48395 5.83495 -9.07187
upperneck 39.5391 4.83044 1.67373
head 14.8273 -0.680763 2.56221
rclavicle 1.67849e-014 -1.05356e-014
rhumerus 26.211 11.0526 -75.7823
rradius 93.4804
rwrist 2.6798
rhand -25.1076 -20.7648
rfingers 7.12502
rthumb 1.4076 -50.7399
lclavicle 1.67849e-014 -1.05356e-014
lhumerus 2.61628 0.478734 79.8078
lradius 63.4567
lwrist 15.0313
lhand -15.7756 18.3912
lfingers 7.12502
lthumb 10.4166 48.1131
rfemur -56.2896 4.38154 20.9145
rtibia 71.9614
rfoot -22.1059 7.10723
rtoes 10.1498
lfemur -28.2062 -3.42577 -17.5245
ltibia 19.5153
lfoot 15.5047 -1.89499
ltoes -20.1798
1004
root 3.30459 25.8211 0.0141686 -166.976 -15.6315 -180.107
lowerback 13.343 -3.28325 -2.6171
upperback 2.76213 -4.8903 2.52151
thorax -4.10579 -2.51124 4.93327
lowerneck -8.26213 5.95522 -9.08952
upperneck 39.5252 4.90727 1.76004
head 14.7563 -0.649639 2.60195
rclavicle 2.14843e-014 -6.93883e-015
rhumerus 27.0873 11.1385 -75.4993
rradius 93.3933
rwrist 2.25685
rhand -24.8819 -21.2566
rfingers 7.12502
rthumb 1.62558 -51.2301
lclavicle 2.14843e-014 -6.93883e-015
lhumerus 2.47909 0.427661 79.4338
lradius 64.4281
lwrist 15.3333
lhand -15.9897 19.5285
lfingers 7.12502
lthumb 10.2101 49.2607
rfemur -56.9885 5.09964 20.9909
rtibia 72.7327
rfoot -22.2224 7.13687
rtoes 10.3002
lfemur -28.1014 -3.89996 -17.1507
ltibia 18.9747
lfoot 15.5733 -1.16418
ltoes -20.5036
1005
root 3.29146 25.747 0.0544529 -167.081 -14.8847 -179.881
lowerback 13.4876 -3.17113 -2.62508
upperback 2.76881 -4.75061 2.49384
thorax -4.19353 -2.44138 4.89913
lowerneck -8.11188 6.06656 -9.10718
upperneck 39.4373 5.02885 1.799
head 14.6656 -0.593952 2.62992
rclavicle 1.07468e-014 -2.50966e-015
rhumerus 28.0325 11.2561 -75.2285
rradius 93.1514
rwrist 1.91485
rhand -24.5879 -21.5819
rfingers 7.12502
rthumb 1.90956 -51.5531
lclavicle 1.07468e-014 -2.50966e-015
lhumerus 2.23922 0.517723 79.1543
lradius 65.4943
lwrist 15.5407
lhand -16.2581 20.9761
lfingers 7.12502
lthumb 9.95112 50.7209
rfemur -57.579 5.7863 20.9858
rtibia 73.4335
rfoot -22.2924 7.30689
rtoes 10.4708
lfemur -27.8794 -4.67418 -16.7489
ltibia 18.5436
lfoot 15.7137 -0.488982
ltoes -21.244
1006
root 3.27753 25.6794 0.0986395 -167.108 -14.1359 -179.679
lowerback 13.5532 -3.09346 -2.6404
upperback 2.77918 -4.65583 2.44141
thorax -4.23121 -2.39446 4.84264
lowerneck -7.84549 6.16936 -9.11593
upperneck 39.1878 5.16699 1.77161
head 14.4736 -0.522 2.62611
rclavicle 3.37685e-014 -1.8487e-014
rhumerus 28.988 11.3956 -74.9277
rradius 92.7745
rwrist 1.4474
rhand -24.5086 -21.8113
rfingers 7.12502
rthumb 1.98613 -51.7818
lclavicle 3.37685e-014 -1.8487e-014
lhumerus 2.03542 0.598371 78.7785
lradius 66.5206
lwrist 15.7701
lhand -16.6709 22.6096
lfingers 7.12502
lthumb 9.55292 52.3731
rfemur -58.2342 6.47708 20.9416
rtibia 74.0733
rfoot -22.3567 7.37647
rtoes 10.3742
lfemur -27.742 -5.26711 -16.4278
ltibia 18.2003
lfoot 15.9329 0.124461
ltoes -21.2347
1007
root 3.26304 25.6128 0.143441 -167.156 -13.3405 -179.336
lowerback 13.5674 -2.98792 -2.46139
upperback 2.82823 -4.50014 2.37096
thorax -4.22235 -2.32278 4.64202
lowerneck -7.62152 6.32499 -9.1296
upperneck 39.0844 5.27677 1.9964
head 14.3486 -0.442425 2.72575
rclavicle 3.77691e-014 -1.87852e-014
rhumerus 29.9579 11.4247 -74.66
rradius 92.3284
rwrist 0.876938
rhand -24.4017 -21.8006
rfingers 7.12502
rthumb 2.08943 -51.7702
lclavicle 3.77691e-014 -1.87852e-014
lhumerus 2.06789 0.564506 78.2897
lradius 67.405
lwrist 16.0079
lhand -17.2816 24.3598
lfingers 7.12502
lthumb 8.96357 54.1494
rfemur -58.8583 7.2492 21.0252
rtibia 74.6669
rfoot -22.4173 7.47242
rtoes 10.4542
lfemur -27.6882 -5.54155 -16.0471
ltibia 18.0007
lfoot 16.0422 0.474806
ltoes -21.709
1008
root 3.24949 25.5404 0.185906 -167.284 -12.475 -178.977
lowerback 13.6651 -2.85985 -2.3168
upperback 2.89312 -4.32446 2.28774
thorax -4.24131 -2.24162 4.44967
lowerneck -7.40127 6.55458 -9.23124
upperneck 38.9952 5.44634 2.4354
head 14.2101 -0.320953 2.93501
rclavicle -6.04305e-014 2.72335e-014
rhumerus 30.9466 11.4161 -74.4416
rradius 91.8059
rwrist 0.437569
rhand -23.9219 -21.7115
rfingers 7.12502
rthumb 2.55281 -51.676
lclavicle -6.04305e-014 2.72335e-014
lhumerus 2.05856 0.590696 77.7362
lradius 68.3068
lwrist 16.2995
lhand -17.7609 25.916
lfingers 7.12502
lthumb 8.50109 55.7248
rfemur -59.4188 8.05218 21.1644
rtibia 75.2864
rfoot -22.5183 7.49751
rtoes 10.0966
lfemur -27.5883 -5.64545 -15.7035
ltibia 17.9201
lfoot 16.0388 0.624489
ltoes -22.3758
1009
root 3.23804 25.4554 0.224408 -167.368 -11.694 -178.666
lowerback 13.8496 -2.75425 -2.32028
upperback 2.81917 -4.18553 2.26608
thorax -4.43382 -2.1657 4.42389
lowerneck -6.99013 6.74281 -9.46027
upperneck 38.7847 5.57557 2.79192
head 13.9757 -0.243245 3.11497
rclavicle -1.16289e-014 -1.66979e-014
rhumerus 31.6923 11.5146 -74.2116
rradius 91.284
rwrist 0.0963148
rhand -23.2518 -21.7082
rfingers 7.12502
rthumb 3.19995 -51.6639
lclavicle -1.16289e-014 -1.66979e-014
lhumerus 1.78175 0.666552 77.3138
lradius 69.2069
lwrist 16.4321
lhand -18.7608 26.4724
lfingers 7.12502
lthumb 7.53604 56.3181
rfemur -60.0452 8.77116 21.2991
rtibia 75.9656
rfoot -22.7078 7.46554
rtoes 9.26717
lfemur -27.5577 -5.75641 -15.3784
ltibia 17.9678
lfoot 16.0476 1.64702
ltoes -20.1427
1010
root 3.22661 25.3695 0.266762 -167.355 -11.0332 -178.444
lowerback 13.9033 -2.70435 -2.31681
upperback 2.77572 -4.11913 2.1952
thorax -4.52051 -2.12856 4.3422
lowerneck -6.63701 0.12798 -8.76641
upperneck 38.4474 8.87112 0.0618709
head 14.0714 4.39072 3.19086
rclavicle -7.13637e-014 2.90226e-014
rhumerus 32.53 11.6318 -73.946
rradius 90.7962
rwrist -0.398875
rhand -23.0048 -21.9941
rfingers 7.12502
rthumb 3.43846 -51.9461
lclavicle -7.13637e-014 2.90226e-014
lhumerus 1.62976 0.770336 76.859
lradius 70.0931
lwrist 16.5298
lhand -20.3822 25.6064
lfingers 7.12502
lthumb 5.97085 55.5022
rfemur -60.78 9.3374 21.3612
rtibia 76.6862
rfoot -22.8267 7.50029
rtoes 8.80607
lfemur -27.633 -5.61796 -15.2512
ltibia 18.1019
lfoot 16.2459 1.66508
ltoes -20.3091
1011
root 3.21442 25.2904 0.313857 -167.402 -10.3749 -178.159
lowerback 14.0315 -2.66844 -2.17623
upperback 2.76865 -4.05916 2.08842
thorax -4.621 -2.0986 4.14993
lowerneck -6.54196 0.242266 -8.62578
upperneck 38.5096 9.0647 -0.00427035
head 14.0801 4.48696 3.16272
rclavicle 5.06901e-015 3.18055e-015
rhumerus 33.3533 11.7238 -73.6429
rradius 90.4362
rwrist -1.11806
rhand -23.2176 -22.3412
rfingers 7.12502
rthumb 3.23292 -52.2964
lclavicle 5.06901e-015 3.18055e-015
lhumerus 1.67335 0.950853 76.3321
lradius 70.8088
lwrist 16.5205
lhand -21.4977 25.0908
lfingers 7.12502
lthumb 4.89378 55.0143
rfemur -61.4347 9.95451 21.4683
rtibia 77.391
rfoot -22.8889 7.56869
rtoes 8.61555
lfemur -27.5853 -5.2725 -15.1342
ltibia 18.091
lfoot 16.6394 1.20489
ltoes -20.5775
